<svg xmlns="http://www.w3.org/2000/svg" viewBox="0 0 540.67 540.67"><defs><style>.cls-1{fill:#191d2a;}.cls-2{fill:#fff;}.cls-3{fill:#69e2fb;}.cls-4{fill:none;}</style></defs><title>icon-inspire</title><g id="Layer_2" data-name="Layer 2"><g id="Layer_1-2" data-name="Layer 1"><circle class="cls-1" cx="270.33" cy="270.33" r="270.33"/><path class="cls-2" d="M404.42,331.89v-8.07q0-102.65,0-205.28c0-9.31,0-9.31,9.14-9.31,17.86,0,35.73.22,53.58-.09,6.18-.11,7.94,2.14,7.93,8.1q-.21,161.45,0,322.88c0,5.71-1.64,7.63-7.5,7.54-20.63-.32-41.28-.25-61.92,0-4.48.05-6.9-1.3-9.32-5.21Q330.26,335.59,263.84,229c-.92-1.48-2-2.84-4.29-6V446.93c-2.74.25-4.73.59-6.72.59-19,0-38-.11-57.06.12-4.91.06-6.94-1-6.93-6.47q.22-162.48,0-325c0-5.64,1.91-7.12,7.25-7.06,19.94.25,39.9.3,59.84,0,5.5-.08,8.91,1.59,11.82,6.3q41.07,66.57,82.47,133,26.08,42,52.22,83.89Z"/><path class="cls-3" d="M134.24,138.54a38.85,38.85,0,0,1-39.35,38.92c-21.31,0-38.75-17.61-39.23-38.71-.49-21.27,18.64-40,39.32-40C116,98.69,135.8,118.12,134.24,138.54Z"/><path class="cls-2" d="M75.69,446.22c16.47,0,32.94-.15,49.41.1,5.22.07,7.37-1.26,7.36-7q-.27-111.35,0-222.68c0-6.11-2.31-7.32-7.75-7.25-18.56.25-37.12.09-55.67.11-9.09,0-9.1,0-9.1,9.05V436.91h0v3.15c1.68,2.08,3.4,4.13,5.14,6.16Z"/><circle class="cls-4" cx="270.33" cy="270.33" r="270.33"/></g></g></svg>